<mxfile host="drawio-plugin" modified="2023-11-18T10:34:29.223Z" agent="5.0 (Windows NT 6.2; Win64; x64) AppleWebKit/537.36 (KHTML, like Gecko) Chrome/87.0.4280.141 Safari/537.36" etag="GLo8fovW3ExPWsJT7Tzp" version="20.5.3" type="embed"><diagram name="Page-1" id="j7pu5VYT8EIY-qGSwvqw"><mxGraphModel dx="1047" dy="743" grid="1" gridSize="10" guides="1" tooltips="1" connect="1" arrows="1" fold="1" page="1" pageScale="1" pageWidth="40000" pageHeight="40000" math="0" shadow="0"><root><mxCell id="0"/><mxCell id="1" parent="0"/><mxCell id="dNaL2BbDveIoPymKybpT-54" value="" style="rounded=1;whiteSpace=wrap;html=1;fillColor=#e1d5e7;strokeColor=#9673a6;" parent="1" vertex="1"><mxGeometry x="80" y="550" width="570" height="240" as="geometry"/></mxCell><mxCell id="dNaL2BbDveIoPymKybpT-6" style="edgeStyle=orthogonalEdgeStyle;rounded=0;orthogonalLoop=1;jettySize=auto;html=1;exitX=1;exitY=0.5;exitDx=0;exitDy=0;entryX=0;entryY=0.5;entryDx=0;entryDy=0;endArrow=none;endFill=0;" parent="1" source="dNaL2BbDveIoPymKybpT-1" target="dNaL2BbDveIoPymKybpT-4" edge="1"><mxGeometry relative="1" as="geometry"/></mxCell><mxCell id="dNaL2BbDveIoPymKybpT-28" style="edgeStyle=orthogonalEdgeStyle;rounded=0;orthogonalLoop=1;jettySize=auto;html=1;exitX=1;exitY=0.75;exitDx=0;exitDy=0;entryX=0;entryY=0.5;entryDx=0;entryDy=0;" parent="1" source="dNaL2BbDveIoPymKybpT-1" target="dNaL2BbDveIoPymKybpT-3" edge="1"><mxGeometry relative="1" as="geometry"><Array as="points"><mxPoint x="750" y="495"/><mxPoint x="750" y="630"/></Array></mxGeometry></mxCell><mxCell id="dNaL2BbDveIoPymKybpT-1" value="Fjord Core" style="rounded=0;whiteSpace=wrap;html=1;" parent="1" vertex="1"><mxGeometry x="300" y="450" width="150" height="60" as="geometry"/></mxCell><mxCell id="dNaL2BbDveIoPymKybpT-94" style="edgeStyle=orthogonalEdgeStyle;rounded=0;orthogonalLoop=1;jettySize=auto;html=1;exitX=0.5;exitY=1;exitDx=0;exitDy=0;entryX=0.5;entryY=0;entryDx=0;entryDy=0;" parent="1" source="dNaL2BbDveIoPymKybpT-3" target="dNaL2BbDveIoPymKybpT-90" edge="1"><mxGeometry relative="1" as="geometry"/></mxCell><mxCell id="dNaL2BbDveIoPymKybpT-3" value="Modules" style="rounded=0;whiteSpace=wrap;html=1;" parent="1" vertex="1"><mxGeometry x="810" y="600" width="150" height="60" as="geometry"/></mxCell><mxCell id="dNaL2BbDveIoPymKybpT-5" style="edgeStyle=orthogonalEdgeStyle;rounded=0;orthogonalLoop=1;jettySize=auto;html=1;exitX=0.5;exitY=1;exitDx=0;exitDy=0;entryX=0.5;entryY=0;entryDx=0;entryDy=0;fillColor=#f5f5f5;strokeColor=#ababab;" parent="1" source="dNaL2BbDveIoPymKybpT-4" target="dNaL2BbDveIoPymKybpT-3" edge="1"><mxGeometry relative="1" as="geometry"/></mxCell><mxCell id="dNaL2BbDveIoPymKybpT-72" value="Dependency on selected modules&amp;nbsp;&lt;br&gt;(required / non-required)" style="edgeLabel;html=1;align=center;verticalAlign=middle;resizable=0;points=[];" parent="dNaL2BbDveIoPymKybpT-5" vertex="1" connectable="0"><mxGeometry x="-0.3302" y="1" relative="1" as="geometry"><mxPoint x="-2" y="15" as="offset"/></mxGeometry></mxCell><mxCell id="dNaL2BbDveIoPymKybpT-4" value="Templates" style="rounded=0;whiteSpace=wrap;html=1;" parent="1" vertex="1"><mxGeometry x="810" y="450" width="150" height="60" as="geometry"/></mxCell><mxCell id="dNaL2BbDveIoPymKybpT-15" value="SMTP settings (E-mail)" style="rounded=0;whiteSpace=wrap;html=1;" parent="1" vertex="1"><mxGeometry x="104" y="567" width="150" height="60" as="geometry"/></mxCell><mxCell id="dNaL2BbDveIoPymKybpT-16" value="Global SEO settings&lt;br&gt;(HTML)" style="rounded=0;whiteSpace=wrap;html=1;" parent="1" vertex="1"><mxGeometry x="300" y="564" width="150" height="60" as="geometry"/></mxCell><mxCell id="dNaL2BbDveIoPymKybpT-19" value="Internal database/records" style="rounded=0;whiteSpace=wrap;html=1;fillColor=#fff2cc;strokeColor=#d6b656;" parent="1" vertex="1"><mxGeometry x="490" y="564" width="150" height="60" as="geometry"/></mxCell><mxCell id="dNaL2BbDveIoPymKybpT-22" value="Languages/Translation settings" style="rounded=0;whiteSpace=wrap;html=1;" parent="1" vertex="1"><mxGeometry x="104" y="640" width="150" height="60" as="geometry"/></mxCell><mxCell id="dNaL2BbDveIoPymKybpT-25" value="User/Role and permissions system" style="rounded=0;whiteSpace=wrap;html=1;" parent="1" vertex="1"><mxGeometry x="490" y="640" width="150" height="60" as="geometry"/></mxCell><mxCell id="dNaL2BbDveIoPymKybpT-63" style="edgeStyle=orthogonalEdgeStyle;rounded=0;orthogonalLoop=1;jettySize=auto;html=1;exitX=1;exitY=0.75;exitDx=0;exitDy=0;entryX=0;entryY=0.5;entryDx=0;entryDy=0;" parent="1" source="dNaL2BbDveIoPymKybpT-40" target="dNaL2BbDveIoPymKybpT-58" edge="1"><mxGeometry relative="1" as="geometry"/></mxCell><mxCell id="dNaL2BbDveIoPymKybpT-67" style="edgeStyle=orthogonalEdgeStyle;rounded=0;orthogonalLoop=1;jettySize=auto;html=1;exitX=1;exitY=0.5;exitDx=0;exitDy=0;entryX=0;entryY=0.5;entryDx=0;entryDy=0;" parent="1" source="dNaL2BbDveIoPymKybpT-40" target="dNaL2BbDveIoPymKybpT-59" edge="1"><mxGeometry relative="1" as="geometry"/></mxCell><mxCell id="dNaL2BbDveIoPymKybpT-69" style="edgeStyle=orthogonalEdgeStyle;rounded=0;orthogonalLoop=1;jettySize=auto;html=1;exitX=1;exitY=0.25;exitDx=0;exitDy=0;entryX=0;entryY=0.5;entryDx=0;entryDy=0;" parent="1" source="dNaL2BbDveIoPymKybpT-40" target="dNaL2BbDveIoPymKybpT-60" edge="1"><mxGeometry relative="1" as="geometry"/></mxCell><mxCell id="dNaL2BbDveIoPymKybpT-40" value="" style="rounded=1;whiteSpace=wrap;html=1;fillColor=#dae8fc;strokeColor=#6c8ebf;align=left;" parent="1" vertex="1"><mxGeometry x="450" y="240" width="350" height="170" as="geometry"/></mxCell><mxCell id="dNaL2BbDveIoPymKybpT-41" value="&lt;font style=&quot;&quot;&gt;&lt;b style=&quot;font-size: 17px;&quot;&gt;Template - Module relation&lt;/b&gt;&lt;br&gt;&lt;span style=&quot;font-size: 13px;&quot;&gt;Každá šablona má své závislosti modulů, které v případě, že budou nalezeny v systému, budou použity, v opačném případě inicializovány a přidány. &lt;br&gt;V případě změny šablony bude administrátor vyzván, zda má uchovat moduly včetně dat pro tuto šablonu, zda má uchovat moduly včetně dat i pro použití v jiné šabloně a zda má uchovat.&lt;/span&gt;&lt;br&gt;&lt;/font&gt;" style="text;strokeColor=none;align=left;fillColor=none;html=1;verticalAlign=top;whiteSpace=wrap;rounded=0;" parent="1" vertex="1"><mxGeometry x="470" y="250" width="300" height="150" as="geometry"/></mxCell><mxCell id="dNaL2BbDveIoPymKybpT-42" value="Universal history of changes" style="rounded=0;whiteSpace=wrap;html=1;" parent="1" vertex="1"><mxGeometry x="300" y="640" width="150" height="60" as="geometry"/></mxCell><mxCell id="dNaL2BbDveIoPymKybpT-45" value="" style="ellipse;whiteSpace=wrap;html=1;aspect=fixed;fillColor=#dae8fc;strokeColor=#6c8ebf;" parent="1" vertex="1"><mxGeometry x="560" y="470" width="35" height="35" as="geometry"/></mxCell><mxCell id="dNaL2BbDveIoPymKybpT-55" style="edgeStyle=orthogonalEdgeStyle;rounded=0;orthogonalLoop=1;jettySize=auto;html=1;exitX=0.5;exitY=1;exitDx=0;exitDy=0;entryX=0.518;entryY=0.004;entryDx=0;entryDy=0;entryPerimeter=0;" parent="1" source="dNaL2BbDveIoPymKybpT-1" target="dNaL2BbDveIoPymKybpT-54" edge="1"><mxGeometry relative="1" as="geometry"/></mxCell><mxCell id="dNaL2BbDveIoPymKybpT-56" style="edgeStyle=orthogonalEdgeStyle;orthogonalLoop=1;jettySize=auto;html=1;exitX=0.5;exitY=0;exitDx=0;exitDy=0;entryX=0.365;entryY=1.004;entryDx=0;entryDy=0;entryPerimeter=0;endArrow=none;endFill=0;strokeColor=#B0B0B0;rounded=0;" parent="1" source="dNaL2BbDveIoPymKybpT-45" target="dNaL2BbDveIoPymKybpT-40" edge="1"><mxGeometry relative="1" as="geometry"/></mxCell><mxCell id="dNaL2BbDveIoPymKybpT-58" value="Save modules with data for other templates" style="rounded=1;whiteSpace=wrap;html=1;" parent="1" vertex="1"><mxGeometry x="820" y="357" width="240" height="20" as="geometry"/></mxCell><mxCell id="dNaL2BbDveIoPymKybpT-59" value="Hide modules with template" style="rounded=1;whiteSpace=wrap;html=1;" parent="1" vertex="1"><mxGeometry x="820" y="315" width="170" height="20" as="geometry"/></mxCell><mxCell id="dNaL2BbDveIoPymKybpT-60" value="Remove modules with template" style="rounded=1;whiteSpace=wrap;html=1;" parent="1" vertex="1"><mxGeometry x="820" y="272" width="180" height="20" as="geometry"/></mxCell><mxCell id="dNaL2BbDveIoPymKybpT-93" style="edgeStyle=orthogonalEdgeStyle;rounded=0;orthogonalLoop=1;jettySize=auto;html=1;exitX=1;exitY=0.5;exitDx=0;exitDy=0;entryX=0;entryY=0.5;entryDx=0;entryDy=0;" parent="1" source="dNaL2BbDveIoPymKybpT-74" target="dNaL2BbDveIoPymKybpT-78" edge="1"><mxGeometry relative="1" as="geometry"/></mxCell><mxCell id="dNaL2BbDveIoPymKybpT-74" value="Pages" style="rounded=0;whiteSpace=wrap;html=1;" parent="1" vertex="1"><mxGeometry x="1040" y="507" width="120" height="60" as="geometry"/></mxCell><mxCell id="dNaL2BbDveIoPymKybpT-76" style="edgeStyle=orthogonalEdgeStyle;rounded=0;orthogonalLoop=1;jettySize=auto;html=1;exitX=0.75;exitY=1;exitDx=0;exitDy=0;entryX=-0.003;entryY=0.383;entryDx=0;entryDy=0;entryPerimeter=0;" parent="1" source="dNaL2BbDveIoPymKybpT-4" target="dNaL2BbDveIoPymKybpT-74" edge="1"><mxGeometry relative="1" as="geometry"/></mxCell><mxCell id="dNaL2BbDveIoPymKybpT-78" value="Page Variables" style="ellipse;whiteSpace=wrap;html=1;" parent="1" vertex="1"><mxGeometry x="1200" y="517" width="120" height="40" as="geometry"/></mxCell><mxCell id="dNaL2BbDveIoPymKybpT-96" style="edgeStyle=none;rounded=0;orthogonalLoop=1;jettySize=auto;html=1;exitX=0.5;exitY=0;exitDx=0;exitDy=0;entryX=1;entryY=0.75;entryDx=0;entryDy=0;endArrow=none;endFill=0;" parent="1" source="dNaL2BbDveIoPymKybpT-85" target="dNaL2BbDveIoPymKybpT-90" edge="1"><mxGeometry relative="1" as="geometry"/></mxCell><mxCell id="dNaL2BbDveIoPymKybpT-85" value="Dynamic DB Tables&lt;br&gt;&lt;font style=&quot;font-size: 8px;&quot;&gt;fjord_dyn_module_&amp;lt;UID:int(6)&amp;gt;_&amp;lt;module_name&amp;gt;[_&amp;lt;subtable&amp;gt;]&lt;/font&gt;" style="ellipse;whiteSpace=wrap;html=1;" parent="1" vertex="1"><mxGeometry x="930" y="760" width="270" height="74" as="geometry"/></mxCell><mxCell id="dNaL2BbDveIoPymKybpT-87" value="Mapping Dynamic DB tables&lt;br&gt;&lt;font style=&quot;font-size: 8px;&quot;&gt;fjord_module&lt;br&gt;fjord_module_table&lt;br&gt;fjord_module_table_cols&lt;br&gt;fjord_template_module&lt;br&gt;&lt;/font&gt;" style="ellipse;whiteSpace=wrap;html=1;" parent="1" vertex="1"><mxGeometry x="620" y="770" width="270" height="110" as="geometry"/></mxCell><mxCell id="dNaL2BbDveIoPymKybpT-90" value="Installation package JSON" style="shape=document;whiteSpace=wrap;html=1;boundedLbl=1;fillColor=#d5e8d4;strokeColor=#82b366;" parent="1" vertex="1"><mxGeometry x="800" y="690" width="170" height="50" as="geometry"/></mxCell><mxCell id="dNaL2BbDveIoPymKybpT-95" style="edgeStyle=none;rounded=0;orthogonalLoop=1;jettySize=auto;html=1;exitX=0.5;exitY=0;exitDx=0;exitDy=0;entryX=0.106;entryY=0.96;entryDx=0;entryDy=0;entryPerimeter=0;endArrow=none;endFill=0;" parent="1" source="dNaL2BbDveIoPymKybpT-87" target="dNaL2BbDveIoPymKybpT-90" edge="1"><mxGeometry relative="1" as="geometry"/></mxCell><mxCell id="57Cn-b5_tWiuDMf0Bqyi-1" value="Router handling" style="rounded=0;whiteSpace=wrap;html=1;" parent="1" vertex="1"><mxGeometry x="104" y="713" width="150" height="60" as="geometry"/></mxCell></root></mxGraphModel></diagram></mxfile>